<svg xmlns="http://www.w3.org/2000/svg" viewBox="0 0 24 24">
    <path fill="currentColor" style="line-height:normal;text-indent:0;text-align:start;text-decoration-line:none;text-decoration-style:solid;text-decoration-color:#000;text-transform:none;block-progression:tb;isolation:auto;mix-blend-mode:normal" d="M 8.2070312 1.9921875 L 6.7929688 3.40625 L 9.5761719 6.1894531 L 3.7988281 11.787109 L 3.7929688 11.792969 C 2.6394154 12.946522 2.6394154 14.854259 3.7929688 16.007812 L 8.8925781 21.107422 C 10.046132 22.260975 11.903752 22.311091 13.007812 21.207031 L 18.107422 16.107422 C 19.260975 14.953868 19.260975 13.046132 18.107422 11.892578 L 16.107422 9.8925781 L 8.2070312 1.9921875 z M 10.988281 7.6035156 L 14.693359 11.306641 L 16.693359 13.306641 C 16.916583 13.529864 17.027344 13.764932 17.027344 14 L 4.8964844 14 C 4.8603635 13.731888 4.9521709 13.461892 5.2070312 13.207031 L 10.988281 7.6035156 z M 20 16 C 20 16 18 18.9 18 20 C 18 21.1 18.9 22 20 22 C 21.1 22 22 21.1 22 20 C 22 18.9 20 16 20 16 z" font-weight="400" font-family="sans-serif" white-space="normal" overflow="visible"></path>
</svg>
