<svg xmlns="http://www.w3.org/2000/svg" xmlns:xlink="http://www.w3.org/1999/xlink" viewBox="0 0 24 24" version="1.1">
<g id="surface1">
<path style=" " d="M 2 2 C 0.894531 2 0 2.894531 0 4 C 0 4.738281 0.402344 5.371094 1 5.71875 L 1 18.28125 C 0.402344 18.628906 0 19.261719 0 20 C 0 21.105469 0.894531 22 2 22 C 2.738281 22 3.371094 21.597656 3.71875 21 L 20.28125 21 C 20.628906 21.597656 21.261719 22 22 22 C 23.105469 22 24 21.105469 24 20 C 24 19.261719 23.597656 18.628906 23 18.28125 L 23 5.71875 C 23.597656 5.371094 24 4.738281 24 4 C 24 2.894531 23.105469 2 22 2 C 21.261719 2 20.628906 2.402344 20.28125 3 L 3.71875 3 C 3.371094 2.402344 2.738281 2 2 2 Z M 3.71875 5 L 20.28125 5 C 20.457031 5.300781 20.699219 5.542969 21 5.71875 L 21 18.28125 C 20.699219 18.457031 20.457031 18.699219 20.28125 19 L 3.71875 19 C 3.542969 18.699219 3.300781 18.457031 3 18.28125 L 3 5.71875 C 3.300781 5.542969 3.542969 5.300781 3.71875 5 Z "></path>
</g>
</svg>
